# xmcd
#
# Track frame offsets:
#	150
#	11438
#	29282
#	42273
#	57454
#	68070
#	81414
#	100558
#	111272
#	129186
#	146056
#	164405
#	181566
#	199216
#	214412
#	235249
#	250444
#	264081
#
# Disc length: 3720 seconds
#
# Revision: 3
# Processed by: cddbd v1.5.2PL0 Copyright (c) Steve Scherf et al.
# Submitted via: dBpowerAMP V4.0
#
DISCID=f80e8612
DTITLE=Jessi Colter - An Outlaw, A Lady:  The Very Best Of Jessi Colter
DYEAR=2003
DGENRE=Country
TTITLE0=You Mean To Say
TTITLE1=Suspicious Minds - Waylon Jennings with Jessi Colter
TTITLE2=Under Your Spell Again - Waylon Jennings with Jessi Colter
TTITLE3=I'm Not Lisa
TTITLE4=What's Happened To Blue Eyes
TTITLE5=You Ain't Never Been Loved (Like I'm Gonna Love You)
TTITLE6=Storms Never Last
TTITLE7=It's Morning (And I Still Love You)
TTITLE8=Without You
TTITLE9=Here I Am
TTITLE10=I Belong To Him - featuring Waylon Jennings with Roy Orbison
TTITLE11=New Wine
TTITLE12=I Thought I Heard You Calling My Name
TTITLE13=You Hung The Moon (Didn't You Waylon?)
TTITLE14=Maybe You Should've Been Listening
TTITLE15=That's The Way A Cowboy Rocks and Rolls
TTITLE16=Hold Back The Tears
TTITLE17=Wild Side OF Life/Wasn't God Who Made Honky Tonk Angels (Medley) - Waylon Jennings with Jessi Colter
EXTD=
EXTT0=
EXTT1=
EXTT2=
EXTT3=
EXTT4=
EXTT5=
EXTT6=
EXTT7=
EXTT8=
EXTT9=
EXTT10=
EXTT11=
EXTT12=
EXTT13=
EXTT14=
EXTT15=
EXTT16=
EXTT17=
PLAYORDER=
